<svg id="header_bg" xmlns="http://www.w3.org/2000/svg" viewBox="0 0 1200 182.5">
  <defs>
    <style>
      .cls-1 {
        fill: #edce77;
      }

      .cls-2, .cls-4 {
        fill: none;
      }

      .cls-2, .cls-3, .cls-4, .cls-7 {
        stroke: #000;
        stroke-miterlimit: 10;
      }

      .cls-3 {
        fill: #efbb18;
      }

      .cls-3, .cls-4 {
        stroke-width: 2px;
      }

      .cls-5 {
        font-size: 12.66px;
      }

      .cls-5, .cls-6 {
        font-family: AvianoFutureBold, Aviano Future;
        font-weight: 700;
      }

      .cls-6 {
        font-size: 12.66px;
      }
    </style>
  </defs>
  <title>header_bgKlen</title>
  <g id="shape">
    <path class="cls-1" d="M1200,104.5H325.38c-11.38,0-13.71,23.5-13.71,31.5s-5.34,34.42-16.5,34.42H0V0H1200Z"/>
    <path class="cls-2" d="M0,170.42H295.17s13.75,0,16.5-34.42c2.42-30.33,8.46-31.5,13.71-31.5H1200"/>
  </g>
  <g id="Layer_4" data-name="Layer 4">
    <circle id="Outer_Ring" class="cls-3" cx="1098.93" cy="94.36" r="87.14"/>
    <circle id="Outer_Ring-2" data-name="Outer_Ring" class="cls-4" cx="1098.93" cy="94.36" r="87.14"/>
    <text class="cls-5" transform="matrix(0.64, -0.76, 0.76, 0.64, 1037.45, 50.78)">K</text>
    <text class="cls-5" transform="translate(1048.56 38.4) rotate(-37.85)">L</text>
    <text class="cls-5" transform="matrix(0.9, -0.44, 0.44, 0.9, 1060.65, 29.47)">E</text>
    <text class="cls-5" transform="matrix(0.97, -0.24, 0.24, 0.97, 1074.92, 22.89)">N</text>
    <text class="cls-5" transform="translate(1091.47 19.45) rotate(-1.48)">D</text>
    <text class="cls-5" transform="translate(1107.76 19.51) rotate(11.6)">A</text>
    <text class="cls-5" transform="translate(1122.56 22.85) rotate(22.66)">T</text>
    <text class="cls-5" transform="translate(1136.6 29.09) rotate(35)">H</text>
    <text class="cls-5" transform="translate(1150.22 39.19) rotate(47.78)">U</text>
    <text class="cls-6" transform="translate(1031.98 146.14) rotate(47.86)">A</text>
    <text class="cls-6" transform="translate(1045.31 159.8) rotate(35.14)">R</text>
    <text class="cls-6" transform="translate(1060.9 169.96) rotate(22.33)">A</text>
    <text class="cls-6" transform="translate(1078.38 176.45) rotate(9.59)">C</text>
    <text class="cls-6" transform="translate(1097.33 178.94) rotate(-3.26)">H</text>
    <text class="cls-6" transform="translate(1116.42 177.14) rotate(-16.28)">N</text>
    <text class="cls-6" transform="translate(1134.17 171.03) rotate(-26.03)">I</text>
    <text class="cls-6" transform="matrix(0.81, -0.59, 0.59, 0.81, 1142.92, 166.63)">D</text>
    <text class="cls-6" transform="matrix(0.66, -0.75, 0.75, 0.66, 1158.15, 154.72)">S</text>
    <g id="dashes">
      <g id="_2_dashes" data-name="2_dashes">
        <polygon points="1167.53 88.94 1161.84 89.29 1161.8 88.76 1167.48 88.41 1167.53 88.94"/>
        <polygon points="1035.59 97.02 1029.91 97.37 1029.86 96.84 1035.55 96.49 1035.59 97.02"/>
      </g>
      <g id="_2_dashes-2" data-name="2_dashes">
        <polygon points="1166.23 80.59 1160.66 81.62 1160.53 81.1 1166.1 80.07 1166.23 80.59"/>
        <polygon points="1036.86 104.68 1031.29 105.72 1031.16 105.19 1036.73 104.16 1036.86 104.68"/>
      </g>
      <g id="_2_dashes-3" data-name="2_dashes">
        <polygon points="1167.48 97.37 1161.8 97.02 1161.84 96.49 1167.53 96.84 1167.48 97.37"/>
        <polygon points="1035.55 89.29 1029.86 88.94 1029.91 88.41 1035.59 88.76 1035.55 89.29"/>
      </g>
      <g id="_2_dashes-4" data-name="2_dashes">
        <polygon points="1166.1 105.72 1160.53 104.68 1160.66 104.16 1166.23 105.19 1166.1 105.72"/>
        <polygon points="1036.73 81.62 1031.16 80.59 1031.29 80.07 1036.86 81.1 1036.73 81.62"/>
      </g>
    </g>
    <g>
      <path class="cls-7" d="M1093.27,84.42a5.73,5.73,0,0,0-2.19-1V84a3.76,3.76,0,0,0,1.18.36S1093.51,84.66,1093.27,84.42Z"/>
      <path class="cls-7" d="M1083.38,89.69l-3.55,1.06-.71-.29,1.25,1.42L1079,93.24l1.47,3.14s2.73,6.15,3,5.26c2-6.15,1.66-5.44,2.08-7.51a13.5,13.5,0,0,0,.17-3.91Z"/>
      <path class="cls-7" d="M1074.51,89.69l.35-.18-2.49-3.67h-.88l-3,5.56,2.37,9.65,2,4.86,1.12.53s.12-.42.77-5.27a48.48,48.48,0,0,0,.06-10.54Z"/>
      <path class="cls-7" d="M1098.66,91.11l-.83-.83-1.48.53-3.85-1-1.36.72s1.24,4.61,1.89,6.45,3.38,7.16,3.38,7.16.12.35.23.35a6.3,6.3,0,0,1,1.25.24c.65.18.65.24.65.24a13.27,13.27,0,0,0,4-2.9,9.78,9.78,0,0,0-.29-1.72Z"/>
      <path class="cls-7" d="M1154.84,73.69,1160.36,63a68.73,68.73,0,0,0-8.09-12.41l-7,6.17,6.23-7.07c-1.36-1.61-2.8-3.16-4.3-4.64l-19.13,16.88,16.82-19.06c-1.3-1.16-2.65-2.28-4-3.35L1134.6,45l5.45-6.17a68.6,68.6,0,0,0-14.93-8.47l-9,4.61h-34l-9.24-4.75a68.67,68.67,0,0,0-13.59,7.4l6.33,7.18-7.33-6.47c-1.7,1.24-3.33,2.55-4.91,3.93L1070.83,62,1051,44.53q-1.83,1.76-3.52,3.65l6.49,7.35-7.29-6.44a69,69,0,0,0-9,13.29l5.82,11.31v34l-7.55,14.66a69.27,69.27,0,0,0,30,32.38l16.25-8.37h34l15.93,8.2a69.14,69.14,0,0,0,30-32.85l-7.22-14Zm-10.37,56.43s-13.49-14.74-14-15.28-3-2.84-3-2.84c-2.72-1.83-7.75-7.57-8.52-8.58a2.87,2.87,0,0,1-.71-1.78s-.12.06-.83-.06-2.31-2.36-2.37-2.48a.27.27,0,0,0-.23-.12l-3.67,2a28.55,28.55,0,0,1-2.25,3.2,3.78,3.78,0,0,1-2.55.71c-.23-.06-.71-.59-.71-.59a49.08,49.08,0,0,0-6.33,4.26c-.71.59-.77.35-.77.35-2.72-.59-2.84-1.71-2.84-1.71a1.48,1.48,0,0,1-1-.12c-.59-.24-1.12-1.48-1.12-1.48a22.32,22.32,0,0,0-1.13-3.79A66.1,66.1,0,0,0,1088.3,93c-.71,1.07-1.9,6.39-2.25,8.94s-1.48,2.19-1.48,2.19a.26.26,0,0,0-.24.18,13.13,13.13,0,0,1-1.24,1.24,3.63,3.63,0,0,1-1.36-.06,9.29,9.29,0,0,1-1.31-1.48c-.47-.59-2.6-7-2.6-7-.83,2.72-1,9.7-1.07,9.88a4.92,4.92,0,0,1-.88,1.42c-.42.42-1.36.12-1.36.12a1.21,1.21,0,0,1-.89.89l-.71.06s-1,.83-1.6.59a3.59,3.59,0,0,1-3-2.25,30.27,30.27,0,0,1-1.48-4.38,64.18,64.18,0,0,1-1.07-6.33l-3,5.8,2.36-7.7-2.25-9.23-2.6-6.16-1.9-.53-11,32.56s1.19-7.29,1.31-7.58.65-3.55,1.3-6.57,1.89-9,2.13-9.77.71-6.21.83-6.39,1.66-4,1.89-4.26a17.46,17.46,0,0,1,1.84-1.36v-.66l1.48-1.48s2.78-1,4.32-.59,3.08,2.61,3.08,2.61a14.83,14.83,0,0,1,.83,2.19c.11.65,1.3,9.35,1.3,9.35a21.8,21.8,0,0,1,.77-2.43,16.73,16.73,0,0,1,1.65-2.48s.42.06.36-.06a.48.48,0,0,1,.06-.48c.12-.17,1.06-.47,1.6-.94s.59-.83,1.71-.54,1.9,3.2,1.9,3.2l2.07-.47a19.68,19.68,0,0,1,2.84,1.6A4.3,4.3,0,0,1,1083,85a14.44,14.44,0,0,1,2.6-1.06,6.48,6.48,0,0,1,.3-1.72s-1.54-.59-2.19-.89-2-1.18-2.54-1.48-3-1.3-3.5-1.54-2.66-1.71-2.66-1.71a28.24,28.24,0,0,1-6.28-.42l5.27-.35a7.21,7.21,0,0,0-1.12-.83c-.24-.06-1.72,0-1.54-.18s.12-.77.12-.77l6-.18s1.42-.35,1.71-.35,1.36-.18,1.36-.18,3.79-.36,5-.59a13.52,13.52,0,0,0,2.78-1.07l2.13,1s2.31.41,2.78.47a5.68,5.68,0,0,0,1.07,0c-.12-.12-1.13-1.48-1.42-2s-.77-1.18-.77-1.18,1.24.23,1.77.35a4.09,4.09,0,0,0,1.13.06,1.61,1.61,0,0,0-.71-.41,23.41,23.41,0,0,0-3.67-.3,8.46,8.46,0,0,1-4.15-1.13A10.6,10.6,0,0,1,1083,65.3a7.49,7.49,0,0,0-1.3-1.36l-.06-1.13a9.29,9.29,0,0,0,1.24-.23c.3-.12.71-.6-.06-.6s-.95-.53-.89-.71a.82.82,0,0,1,.66-.41c.35-.06,3-.47,4.2-.83a50.87,50.87,0,0,1,8.28-2c6.93-.83,9.65.47,9.65.47l2.67,1a63,63,0,0,0-7.64-.18c-3.73.18-5.39,1.42-5.39,1.42l-.35.36-.42.17-.29.36-.47.06-.3.41-.18-.06-.12.3h-.35l-.06.24-.42-.06-.11.17-.24.06-.18.3h-.35l-.06.12-.18-.06-.18.23-.23,0-.12.17-.3-.12-.18.18-.35-.12-.24.18-.18-.12-.17.12-.18-.12-.18.06-.11-.11s0,.05-.36,0a2.31,2.31,0,0,1-1-.59l-1.95.06c-.24,0-.18.18-.18.18l1.84,1.18a5.45,5.45,0,0,0,3.19,1.07s2.25.18,3.26.35a10.49,10.49,0,0,1,2.42,1s-.77-1.24-.82-1.36a6,6,0,0,1,.11-1.13s1.19-.11,1.42-.11.48-.42,0-.48-1.59-.89-.17-1.12a19.7,19.7,0,0,0,5.68-1.19A24.92,24.92,0,0,1,1111,60c5,.42,5.92,1.42,5.92,1.42a39.06,39.06,0,0,0-8.41.24,4.64,4.64,0,0,0-2.48.95l-.24.35-.53.12-.3.3-.3,0-.29.3h-.24l-.06.12-.17-.06v.18h-.24l-.12.18-.18-.06-.12.17-.23-.06-.06.24-.3-.06-.06.18h-.23l-.18.18-.18-.06-.18.18h-.23l-.18.11-.18-.06L1101,65l-.11-.06a.86.86,0,0,0-.18.12c-.06.06-.18-.06-.18-.06l-.24.06a1.76,1.76,0,0,0-.53-.06c-.35,0-1-.53-1-.53s-.76,0-1.42.06-.35.35-.35.35,2.49,1.48,2.66,1.6,4,.54,4,.54c4.91,1.77,5.09,3.72,5.09,3.72,3.43-.11,5.15-.53,7.22-.65a3.1,3.1,0,0,1,2.9,1.42l-.06,1.54-2.19,7-.77-3.38-1.24-1.36-1.36-.12c-10.54.14-11.07,1.84-11.07,1.84s-.36.77-.3.47-.18-.12-.18-.12c-1.18,1.54-2.13,1.31-2.13,1.31a3.7,3.7,0,0,1-.17,1.54,7.18,7.18,0,0,0,3,.82c.06,0-.47-.59-.47-.59s1,.54,1,.83-.24.24-1.36.24a6.76,6.76,0,0,1-2.19-.42c0,.3-.42,1.13-.3,1.13s.83.12.83.12l.06-.18c.06-.12.35-.24.35-.24l.12.83a.86.86,0,0,1,.48-.41l0,.88.24-.17c.24-.18.36-.12.36-.12l.06.71a9.39,9.39,0,0,0,1.24.89,18.51,18.51,0,0,0,10.83,2l1.3-1.36.83-2.31.24,2.25c.47,2.6.06,4.14-.18,4.38a10.9,10.9,0,0,1-1.77.83l-2.55-.12c-3.08-1.18-9.71-.65-9.71-.65a9,9,0,0,0,.24,3,37.34,37.34,0,0,0,2.54,8l7.23-5.09,3-4.32,5.68-7.4a4.83,4.83,0,0,1,1.54-.36,2.86,2.86,0,0,1,3,2,1.53,1.53,0,0,1,.83.77c.11.36.41.3.59.18s1.06-.83,1.06-.83a69.19,69.19,0,0,0,6.1,12.79l3.43,5.8,3.67,7.28s-4.26-6.21-6.75-9.65a68.66,68.66,0,0,0-6.33-7.57,18.39,18.39,0,0,1-2.13-2.61,12.77,12.77,0,0,1-1.6-2.31,4.49,4.49,0,0,1,.36-.89l-1.66-.47-1.12-.06c-.48.71-4.33,5.33-4.33,5.33,2.85,1,3.14,4.32,3.14,4.32a1.31,1.31,0,0,1,1.3-.71l5.63,8.46L1141,123.6l8.88,12.61Z"/>
    </g>
    <polygon class="cls-3" points="1110.57 130.49 1087.63 130.49 1076.71 133.62 1076.71 138.23 1087.63 135.1 1110.57 135.1 1121.25 138.16 1121.25 133.55 1110.57 130.49"/>
  </g>
</svg>
