<svg xmlns="http://www.w3.org/2000/svg" viewBox="0 0 1200 180.18">
  <defs>
    <style>
      .cls-1 {
        fill: tan;
      }

      .cls-2, .cls-5 {
        fill: none;
      }

      .cls-2, .cls-3 {
        stroke: #000;
      }

      .cls-2, .cls-3, .cls-5 {
        stroke-miterlimit: 10;
      }

      .cls-3, .cls-4 {
        fill: #fff;
      }

      .cls-3 {
        stroke-width: 2px;
      }

      .cls-5 {
        stroke: #fff;
      }
    </style>
  </defs>
  <title>header_bg_2</title>
  <g id="Layer_2" data-name="Layer 2">
    <g id="header_bg">
      <g id="shape">
        <path class="cls-1" d="M1200,104.5H325.38c-11.38,0-13.71,23.5-13.71,31.5s-5.34,34.42-16.5,34.42H0V0H1200Z"/>
        <path class="cls-2" d="M0,170.42H295.17s13.75,0,16.5-34.42c2.42-30.33,8.46-31.5,13.71-31.5H1200"/>
      </g>
      <g id="UCF_Logo">
        <circle id="Outer_Ring" class="cls-3" cx="1099.09" cy="94.43" r="84.76"/>
        <path id="bird" d="M1147.41,42.15l-3.7,6.05h-7.34l-16,29.79,12.49-37.21h4.26l3-4.56a71.19,71.19,0,0,0-82.6.39l2.73,4.17h4.26L1077,78l-16-29.79h-7.33l-3.41-5.57a71.19,71.19,0,0,0,25.15,118.88l4.52-9.81,2.26,1.18,3.37,11.39a73.09,73.09,0,0,0,9.76,1.19V164h-4.43l-6.16-15.12-6.34-3-3,4.25c-20.92-6.25-56.77-53.06-21.82-96.07l28.34,48.08-6.34,22,4.44,6.16,7-4.16,2.72-32.69-7.52-.73s-.9-8.24,7.88-8.33c2.72,0,1.45-5.43,3.26-5.43h9.6c2.17,0,2.35,3.44,2.35,3.44l5.35,44.19,6.43,3.17,4.52-6.07-6.79-21.37,29.07-48.17c40,51.88-8.6,90.82-22,95.26l-2.54-3.26-6.61,2.9-5.89,15h-5v1.39a69.54,69.54,0,0,0,10.08-1.09l3.42-11.53,2.26-1.18,4.62,10a71.19,71.19,0,0,0,25.25-119.58Z"/>
        <g id="text_UNITED">
          <path d="M1065.27,20.42l1.81,4.19c.6,1.38,1.5,1.92,2.53,1.47s1.3-1.45.69-2.86l-1.81-4.2,1.8-.77,1.79,4.13c1.07,2.48.23,4.2-1.94,5.14s-3.78.38-4.9-2.22l-1.78-4.1Z"/>
          <path d="M1079,24.1,1077.09,16l2.36-.55L1082,18a22.78,22.78,0,0,1,2.14,2.57h0a28.66,28.66,0,0,1-.89-3.23l-.59-2.55,1.78-.41,1.86,8.09-2.07.48-2.62-2.69a30.6,30.6,0,0,1-2.29-2.63l0,0c.33,1.14.6,2.25.88,3.47l.61,2.63Z"/>
          <path d="M1093.25,13.3l.69,8.27-2,.16-.69-8.27Z"/>
          <path d="M1101.82,14.74l-2.5-.12.07-1.6,7,.33-.08,1.6-2.53-.12-.31,6.69-2-.09Z"/>
          <path d="M1117,20l-3.37-.69-.37,1.85,3.76.76-.32,1.55L1111,22.32l1.65-8.13,5.5,1.11-.32,1.55-3.57-.72-.34,1.63,3.38.69Z"/>
          <path d="M1124.8,17.27a21.55,21.55,0,0,1,2.71.85,6.14,6.14,0,0,1,3.16,2.24,3.51,3.51,0,0,1,.31,3.39,4.1,4.1,0,0,1-2.54,2.57,6.79,6.79,0,0,1-4.4-.45,18.32,18.32,0,0,1-2.19-1Zm-.6,7a4.89,4.89,0,0,0,.71.32c1.86.74,3.41.27,4.09-1.49.63-1.61-.18-2.85-1.88-3.51a5.69,5.69,0,0,0-1-.3Z"/>
        </g>
        <g id="text_CITIZEN_FEDERATION" data-name="text_CITIZEN FEDERATION">
          <path d="M1022.47,123.42a6.1,6.1,0,0,1-1.15-2.17c-1-3,.23-5.09,2.47-5.83,2.6-.85,4.86.64,5.74,3.3a5.6,5.6,0,0,1,.34,2.36l-1.58.08a4.82,4.82,0,0,0-.24-1.87,2.71,2.71,0,1,0-5.13,1.71,5.13,5.13,0,0,0,.88,1.64Z"/>
          <path d="M1033.14,127.58l-7.46,3.64-.86-1.77,7.46-3.64Z"/>
          <path d="M1035.55,135l-1.38-2.09,1.34-.88,3.86,5.84-1.34.89-1.4-2.12-5.59,3.69L1030,138.7Z"/>
          <path d="M1043.85,143.32l-6.29,5.43-1.28-1.48,6.28-5.43Z"/>
          <path d="M1042.54,152.57l7-1.27,0,0-3-2.65,1.07-1.2,4.95,4.4-.69.79-7,1.31,0,0,3.29,2.93-1.07,1.19-5.31-4.72Z"/>
          <path d="M1058.8,162l-2.89-1.87-1,1.58,3.22,2.08-.85,1.33-4.88-3.14,4.49-7,4.72,3-.86,1.33-3.06-2-.91,1.4,2.89,1.87Z"/>
          <path d="M1063.06,168.27l3.3-7.62,2.22,1,.54,3.47a23.48,23.48,0,0,1,.2,3.34h0a29.12,29.12,0,0,1,1.19-3.12l1-2.41,1.68.73-3.29,7.62-2-.85-.52-3.72a32.7,32.7,0,0,1-.28-3.47l0,0c-.41,1.12-.85,2.17-1.35,3.32l-1.07,2.48Z"/>
          <path d="M1085.23,166.92l5.5.84-.24,1.56-3.55-.54-.28,1.81,3.32.5-.23,1.57-3.32-.51-.5,3.27-1.94-.29Z"/>
          <path d="M1101.51,173.05l-3.45-.06,0,1.88,3.85.06,0,1.59-5.8-.1.13-8.3,5.61.09,0,1.59-3.65-.06,0,1.67,3.44.05Z"/>
          <path d="M1107.18,167.94a21,21,0,0,1,2.76-.64,6.1,6.1,0,0,1,3.87.33,3.53,3.53,0,0,1,2,2.77,4.08,4.08,0,0,1-.9,3.5,6.75,6.75,0,0,1-4,1.83,17.68,17.68,0,0,1-2.39.26Zm3,6.33a4.94,4.94,0,0,0,.77-.09c2-.3,3.07-1.49,2.77-3.35s-1.59-2.37-3.39-2.08a4.92,4.92,0,0,0-1,.25Z"/>
          <path d="M1126.88,168l-3.26,1.1.6,1.78,3.64-1.23.51,1.5-5.49,1.86-2.67-7.86,5.32-1.8.5,1.5-3.45,1.17.53,1.58,3.26-1.1Z"/>
          <path d="M1130.62,161.29a18.12,18.12,0,0,1,2.34-1.43,4.54,4.54,0,0,1,2.83-.73,2.09,2.09,0,0,1,1.52,1.17,2.18,2.18,0,0,1-.41,2.51l0,0a2.22,2.22,0,0,1,1.72.81c.69.7,1.43,1.55,1.73,1.77l-1.77.93a11.44,11.44,0,0,1-1.44-1.41c-.71-.8-1.17-.87-1.94-.48l-.58.3,1.5,2.88-1.72.9Zm3.37,2.25.78-.41c.89-.47,1.23-1.15.89-1.79s-1.05-.72-1.85-.3a4.66,4.66,0,0,0-.85.53Z"/>
          <path d="M1146.21,158.88,1147,161l-1.64,1.25-2.82-8.28,2.09-1.6,7.34,4.84-1.73,1.32-1.92-1.31Zm1-2.58-1.55-1.05c-.43-.29-.89-.63-1.28-.91h0c.17.46.41,1,.59,1.45l.62,1.75Z"/>
          <path d="M1152.32,147.76l-1.75,1.79-1.14-1.12,4.89-5,1.14,1.12-1.77,1.82,4.79,4.68-1.37,1.4Z"/>
          <path d="M1158.67,137.9l6.63,5-1.17,1.57-6.64-5Z"/>
          <path d="M1169.59,127.76a4.23,4.23,0,0,1,1.65,6.07,4.09,4.09,0,0,1-5.78,1.79,4.25,4.25,0,0,1-1.69-6A4.09,4.09,0,0,1,1169.59,127.76Zm-3.18,6A2.47,2.47,0,0,0,1170,133c.7-1.28.08-2.62-1.32-3.39s-2.85-.57-3.56.73S1165.05,133,1166.41,133.76Z"/>
          <path d="M1175.88,123.62,1168,121l.75-2.3,3.41-.85a22,22,0,0,1,3.32-.5v0a28.9,28.9,0,0,1-3.22-.9l-2.49-.82.57-1.73,7.89,2.59-.66,2-3.66.85a31.65,31.65,0,0,1-3.44.6v0c1.15.31,2.24.65,3.42,1l2.57.84Z"/>
        </g>
        <g id="UCF">
          <path class="cls-4" d="M1082.94,56.89V47a.78.78,0,0,1,.28-.6.94.94,0,0,1,1.28,0,.74.74,0,0,1,.28.58v9.88a.74.74,0,0,0,.27.57.91.91,0,0,0,.65.25h3.75a.93.93,0,0,0,.65-.24.74.74,0,0,0,.27-.58V47a.78.78,0,0,1,.27-.6.9.9,0,0,1,.65-.25.91.91,0,0,1,.65.25.78.78,0,0,1,.27.6v9.84a2.3,2.3,0,0,1-.82,1.78,2.76,2.76,0,0,1-1.94.75h-3.75a2.8,2.8,0,0,1-2-.74A2.31,2.31,0,0,1,1082.94,56.89Z"/>
          <path class="cls-4" d="M1099.27,57.73h3.32a1,1,0,0,1,.66.24.77.77,0,0,1,.28.59.79.79,0,0,1-.28.6,1,1,0,0,1-.66.24h-3.43a2.89,2.89,0,0,1-1.36-.38,2.42,2.42,0,0,1-1-.84l-2.12-3.73a3.57,3.57,0,0,1-.43-1.66,3.14,3.14,0,0,1,.41-1.62l2.14-3.69a2.69,2.69,0,0,1,1-.91,2.43,2.43,0,0,1,1.25-.39h3.62a.9.9,0,0,1,.65.25.76.76,0,0,1,.27.58.8.8,0,0,1-.27.61.88.88,0,0,1-.65.25h-3.49a.81.81,0,0,0-.71.47l-2,3.46a1.85,1.85,0,0,0-.24,1,2,2,0,0,0,.27,1l1.94,3.4A.93.93,0,0,0,1099.27,57.73Z"/>
          <path class="cls-4" d="M1105.52,58.56V46.18h8.32a.92.92,0,0,1,.64.25.74.74,0,0,1,.28.58.8.8,0,0,1-.27.61.93.93,0,0,1-.65.25h-6.49V50.5H1112a1,1,0,0,1,.65.24.8.8,0,0,1,0,1.18.91.91,0,0,1-.65.25h-4.66v6.39a.78.78,0,0,1-.27.6,1,1,0,0,1-1.29,0A.78.78,0,0,1,1105.52,58.56Z"/>
        </g>
        <g id="globe_lines">
          <rect id="line3" class="cls-4" x="1079.92" y="42.41" width="35.77" height="0.54"/>
          <rect id="line2" class="cls-4" x="1082.41" y="38.6" width="30.79" height="0.54"/>
          <polygon id="line1" class="cls-4" points="1108.39 34.71 1087.2 34.71 1087.66 34.17 1107.94 34.17 1108.39 34.71"/>
          <rect id="line3-2" data-name="line3" class="cls-4" x="1079.87" y="62.15" width="35.86" height="0.54" transform="translate(2195.6 124.83) rotate(180)"/>
          <rect id="line2-2" data-name="line2" class="cls-4" x="1082.41" y="65.91" width="30.79" height="0.54" transform="translate(2195.6 132.36) rotate(180)"/>
          <polygon id="line1-2" data-name="line1" class="cls-4" points="1087.12 70.3 1108.47 70.3 1108.02 70.84 1087.58 70.84 1087.12 70.3"/>
          <g id="vertical_lines">
            <g>
              <path class="cls-5" d="M1111.18,43c-2.49-6.77-7.55-11.41-13.38-11.41s-10.89,4.64-13.38,11.41Z"/>
              <path class="cls-5" d="M1084.51,62.33C1087,69,1092,73.51,1097.8,73.51s10.77-4.53,13.29-11.18Z"/>
            </g>
            <g>
              <path class="cls-5" d="M1106.31,43c-1.59-6.77-4.8-11.41-8.51-11.41s-6.93,4.64-8.51,11.41Z"/>
              <path class="cls-5" d="M1089.34,62.33c1.61,6.65,4.79,11.18,8.46,11.18s6.85-4.53,8.46-11.18Z"/>
            </g>
            <g>
              <path class="cls-5" d="M1101.42,43c-.67-6.77-2-11.41-3.62-11.41s-3,4.64-3.62,11.41Z"/>
              <path class="cls-5" d="M1094.2,62.33c.68,6.65,2,11.18,3.6,11.18s2.92-4.53,3.6-11.18Z"/>
            </g>
            <g id="outer_line">
              <path class="cls-5" d="M1079.86,62.33a20,20,0,0,0,35.88,0Z"/>
              <path class="cls-5" d="M1115.85,43a20,20,0,0,0-36.1,0Z"/>
            </g>
            <line class="cls-5" x1="1097.8" y1="31.54" x2="1097.8" y2="42.95"/>
            <line id="vert" class="cls-5" x1="1097.8" y1="73.51" x2="1097.8" y2="62.33"/>
          </g>
        </g>
        <g id="dashes">
          <g id="_2_dashes" data-name="2_dashes">
            <rect x="1173.48" y="92.71" width="6.72" height="0.63"/>
            <rect x="1017.53" y="92.71" width="6.72" height="0.63"/>
          </g>
          <g id="_2_dashes-2" data-name="2_dashes">
            <polygon points="1180.03 88.37 1173.33 88.78 1173.28 88.15 1179.98 87.74 1180.03 88.37"/>
            <polygon points="1024.45 97.9 1017.75 98.31 1017.7 97.68 1024.4 97.27 1024.45 97.9"/>
          </g>
          <g id="_2_dashes-3" data-name="2_dashes">
            <polygon points="1179.46 83.42 1172.81 84.24 1172.71 83.62 1179.36 82.8 1179.46 83.42"/>
            <polygon points="1025.02 102.43 1018.37 103.25 1018.27 102.63 1024.92 101.81 1025.02 102.43"/>
          </g>
          <g id="_2_dashes-4" data-name="2_dashes">
            <polygon points="1178.5 78.52 1171.93 79.74 1171.78 79.13 1178.35 77.9 1178.5 78.52"/>
            <polygon points="1025.95 106.92 1019.38 108.15 1019.23 107.53 1025.8 106.31 1025.95 106.92"/>
          </g>
          <g id="_2_dashes-5" data-name="2_dashes">
            <polygon points="1179.98 98.31 1173.28 97.9 1173.33 97.27 1180.03 97.68 1179.98 98.31"/>
            <polygon points="1024.4 88.78 1017.7 88.37 1017.75 87.74 1024.45 88.15 1024.4 88.78"/>
          </g>
          <g id="_2_dashes-6" data-name="2_dashes">
            <polygon points="1179.36 103.25 1172.71 102.43 1172.81 101.81 1179.46 102.63 1179.36 103.25"/>
            <polygon points="1024.92 84.24 1018.27 83.42 1018.37 82.8 1025.02 83.62 1024.92 84.24"/>
          </g>
          <g id="_2_dashes-7" data-name="2_dashes">
            <polygon points="1178.35 108.15 1171.78 106.92 1171.93 106.31 1178.5 107.53 1178.35 108.15"/>
            <polygon points="1025.8 79.74 1019.23 78.52 1019.38 77.9 1025.95 79.13 1025.8 79.74"/>
          </g>
        </g>
      </g>
    </g>
  </g>
</svg>
